<?xml version="1.0" encoding="utf-8"?>
<!-- Generator: Adobe Illustrator 19.2.0, SVG Export Plug-In . SVG Version: 6.00 Build 0)  -->
<svg version="1.1" id="Capa_1" xmlns="http://www.w3.org/2000/svg" xmlns:xlink="http://www.w3.org/1999/xlink" x="0px" y="0px"
	 viewBox="0 0 300 300" style="enable-background:new 0 0 300 300;" xml:space="preserve">
<style type="text/css">
	.st0{opacity:0.5;}
	.st1{fill:#FFFFFF;}
	.st2{fill:url(#SVGID_1_);}
	.st3{fill:#333333;}
	.st4{opacity:0.4;}
	.st5{opacity:0.9;fill:#FFFFFF;}
	.st6{fill:url(#SVGID_2_);}
	.st7{fill:#666666;}
	.st8{fill:#D4145A;}
	.st9{fill-rule:evenodd;clip-rule:evenodd;fill:#D4145A;}
	.st10{fill:#1A1A1A;}
	.st11{fill:url(#SVGID_3_);}
	.st12{fill:#7FABC7;}
	.st13{fill:#436289;}
	.st14{fill:#547EA5;}
	.st15{fill:url(#SVGID_4_);}
	.st16{fill:#F2F2F2;}
	.st17{fill:#4D4D4D;}
	.st18{fill:#FFFFFF;stroke:#666666;stroke-miterlimit:10;}
	.st19{fill:url(#SVGID_5_);}
	.st20{opacity:0.3;fill:#FFFFFF;}
	.st21{opacity:0.5;fill:none;stroke:#FFFFFF;stroke-miterlimit:10;}
	.st22{opacity:0.9;}
	.st23{fill:none;stroke:#FFFFFF;stroke-width:0.25;stroke-miterlimit:10;}
	.st24{fill:#E7B46D;}
	.st25{fill:#BE8257;}
	.st26{fill:none;stroke:#E7B46D;stroke-miterlimit:10;}
	.st27{fill:url(#SVGID_6_);}
	.st28{fill:url(#SVGID_7_);}
	.st29{opacity:0.3;}
	.st30{opacity:0.6;}
	.st31{fill:url(#SVGID_8_);}
	.st32{fill:url(#SVGID_9_);}
	.st33{fill:url(#SVGID_10_);}
	.st34{fill:url(#SVGID_13_);}
	.st35{fill:url(#SVGID_14_);}
	.st36{fill:url(#SVGID_15_);}
	.st37{fill:url(#SVGID_16_);}
	.st38{fill:url(#SVGID_17_);}
	.st39{clip-path:url(#SVGID_19_);}
	.st40{opacity:0.5;fill:#FFFFFF;}
	.st41{fill:none;stroke:#333333;stroke-linecap:round;stroke-miterlimit:10;}
	.st42{fill:none;stroke:#4D4D4D;stroke-width:0.5;stroke-miterlimit:10;}
	.st43{fill:url(#SVGID_22_);}
</style>
<g>
	<path class="st1" d="M147.4,205.7c0.9,0,1.7-0.8,1.7-1.7c0-0.9-0.8-1.7-1.7-1.7h-1.3c-0.9,0-1.7,0.8-1.7,1.7c0,0.9,0.8,1.7,1.7,1.7
		H147.4z"/>
	<path class="st1" d="M180.3,205.7c0.9,0,1.7-0.8,1.7-1.7c0-0.9-0.8-1.7-1.7-1.7H179c-0.9,0-1.7,0.8-1.7,1.7c0,0.9,0.8,1.7,1.7,1.7
		H180.3z"/>
	<path class="st1" d="M140.8,205.7c0.9,0,1.7-0.8,1.7-1.7c0-0.9-0.8-1.7-1.7-1.7h-1.3c-0.9,0-1.7,0.8-1.7,1.7c0,0.9,0.8,1.7,1.7,1.7
		H140.8z"/>
	<path class="st1" d="M114.5,205.7c0.9,0,1.7-0.8,1.7-1.7c0-0.9-0.8-1.7-1.7-1.7h-1.3c-0.9,0-1.7,0.8-1.7,1.7c0,0.9,0.8,1.7,1.7,1.7
		H114.5z"/>
	<path class="st1" d="M186.9,205.7c0.9,0,1.7-0.8,1.7-1.7c0-0.9-0.8-1.7-1.7-1.7h-1.3c-0.9,0-1.7,0.8-1.7,1.7c0,0.9,0.8,1.7,1.7,1.7
		H186.9z"/>
	<path class="st1" d="M134.2,205.7c0.9,0,1.7-0.8,1.7-1.7c0-0.9-0.8-1.7-1.7-1.7h-1.3c-0.9,0-1.7,0.8-1.7,1.7c0,0.9,0.8,1.7,1.7,1.7
		H134.2z"/>
	<path class="st1" d="M121,205.7c0.9,0,1.7-0.8,1.7-1.7c0-0.9-0.8-1.7-1.7-1.7h-1.3c-0.9,0-1.7,0.8-1.7,1.7c0,0.9,0.8,1.7,1.7,1.7
		H121z"/>
	<path class="st1" d="M205.3,205.7h1.3c0.9,0,1.7-0.8,1.7-1.7c0-0.9-0.8-1.7-1.7-1.7h-1.3c-0.9,0-1.7,0.8-1.7,1.7
		C203.6,204.9,204.3,205.7,205.3,205.7z"/>
	<path class="st1" d="M193.4,205.7c0.9,0,1.7-0.8,1.7-1.7c0-0.9-0.8-1.7-1.7-1.7h-1.3c-0.9,0-1.7,0.8-1.7,1.7c0,0.9,0.8,1.7,1.7,1.7
		H193.4z"/>
	<path class="st1" d="M213.2,205.7c0.9,0,1.7-0.8,1.7-1.7c0-0.9-0.8-1.7-1.7-1.7h-1.3c-0.9,0-1.7,0.8-1.7,1.7c0,0.9,0.8,1.7,1.7,1.7
		H213.2z"/>
	<path class="st1" d="M226.3,205.7c0.9,0,1.7-0.8,1.7-1.7c0-0.9-0.8-1.7-1.7-1.7H225c-0.9,0-1.7,0.8-1.7,1.7c0,0.9,0.8,1.7,1.7,1.7
		H226.3z"/>
	<path class="st1" d="M219.8,205.7c0.9,0,1.7-0.8,1.7-1.7c0-0.9-0.8-1.7-1.7-1.7h-1.3c-0.9,0-1.7,0.8-1.7,1.7c0,0.9,0.8,1.7,1.7,1.7
		H219.8z"/>
	<path class="st1" d="M107.9,205.7c0.9,0,1.7-0.8,1.7-1.7c0-0.9-0.8-1.7-1.7-1.7h-1.3c-0.9,0-1.7,0.8-1.7,1.7c0,0.9,0.8,1.7,1.7,1.7
		H107.9z"/>
	<path class="st1" d="M200,205.7c0.9,0,1.7-0.8,1.7-1.7c0-0.9-0.8-1.7-1.7-1.7h-1.3c-0.9,0-1.7,0.8-1.7,1.7c0,0.9,0.8,1.7,1.7,1.7
		H200z"/>
	<path class="st1" d="M127.6,205.7c0.9,0,1.7-0.8,1.7-1.7c0-0.9-0.8-1.7-1.7-1.7h-1.3c-0.9,0-1.7,0.8-1.7,1.7c0,0.9,0.8,1.7,1.7,1.7
		H127.6z"/>
	<path class="st1" d="M167.1,202.3h-1.3c-0.9,0-1.7,0.8-1.7,1.7c0,0.9,0.8,1.7,1.7,1.7h1.3c0.9,0,1.7-0.8,1.7-1.7
		C168.8,203.1,168.1,202.3,167.1,202.3z"/>
	<path class="st1" d="M175.4,204c0-0.9-0.8-1.7-1.7-1.7h-1.3c-0.9,0-1.7,0.8-1.7,1.7c0,0.9,0.8,1.7,1.7,1.7h1.3
		C174.6,205.7,175.4,204.9,175.4,204z"/>
	<path class="st1" d="M96.4,204c0-0.9-0.8-1.7-1.7-1.7h-1.3c-0.9,0-1.7,0.8-1.7,1.7c0,0.9,0.8,1.7,1.7,1.7h1.3
		C95.7,205.7,96.4,204.9,96.4,204z"/>
	<path class="st1" d="M153.9,202.3h-1.3c-0.9,0-1.7,0.8-1.7,1.7c0,0.9,0.8,1.7,1.7,1.7h1.3c0.9,0,1.7-0.8,1.7-1.7
		C155.6,203.1,154.9,202.3,153.9,202.3z"/>
	<path class="st1" d="M160.5,202.3h-1.3c-0.9,0-1.7,0.8-1.7,1.7c0,0.9,0.8,1.7,1.7,1.7h1.3c0.9,0,1.7-0.8,1.7-1.7
		C162.2,203.1,161.5,202.3,160.5,202.3z"/>
	<path class="st1" d="M244.8,205.7h1.3c0.9,0,1.7-0.8,1.7-1.7c0-0.9-0.8-1.7-1.7-1.7h-1.3c-0.9,0-1.7,0.8-1.7,1.7
		C243.1,204.9,243.8,205.7,244.8,205.7z"/>
	<path class="st1" d="M238.2,205.7h1.3c0.9,0,1.7-0.8,1.7-1.7c0-0.9-0.8-1.7-1.7-1.7h-1.3c-0.9,0-1.7,0.8-1.7,1.7
		C236.5,204.9,237.2,205.7,238.2,205.7z"/>
	<path class="st1" d="M229.9,204c0,0.9,0.8,1.7,1.7,1.7h1.3c0.9,0,1.7-0.8,1.7-1.7c0-0.9-0.8-1.7-1.7-1.7h-1.3
		C230.7,202.3,229.9,203.1,229.9,204z"/>
	<path class="st1" d="M101.3,205.7c0.9,0,1.7-0.8,1.7-1.7c0-0.9-0.8-1.7-1.7-1.7H100c-0.9,0-1.7,0.8-1.7,1.7c0,0.9,0.8,1.7,1.7,1.7
		H101.3z"/>
	<path class="st1" d="M88.1,202.3h-1.3c-0.9,0-1.7,0.8-1.7,1.7c0,0.9,0.8,1.7,1.7,1.7h1.3c0.9,0,1.7-0.8,1.7-1.7
		C89.8,203.1,89.1,202.3,88.1,202.3z"/>
	<path class="st1" d="M67.1,205.7h1.3c0.9,0,1.7-0.8,1.7-1.7c0-0.9-0.8-1.7-1.7-1.7h-1.3c-0.9,0-1.7,0.8-1.7,1.7
		C65.4,204.9,66.1,205.7,67.1,205.7z"/>
	<path class="st1" d="M53.9,205.7h1.3c0.9,0,1.7-0.8,1.7-1.7c0-0.9-0.8-1.7-1.7-1.7h-1.3c-0.9,0-1.7,0.8-1.7,1.7
		C52.2,204.9,53,205.7,53.9,205.7z"/>
	<path class="st1" d="M60.5,205.7h1.3c0.9,0,1.7-0.8,1.7-1.7c0-0.9-0.8-1.7-1.7-1.7h-1.3c-0.9,0-1.7,0.8-1.7,1.7
		C58.8,204.9,59.6,205.7,60.5,205.7z"/>
	<path class="st1" d="M81.6,202.3h-1.3c-0.9,0-1.7,0.8-1.7,1.7c0,0.9,0.8,1.7,1.7,1.7h1.3c0.9,0,1.7-0.8,1.7-1.7
		C83.3,203.1,82.5,202.3,81.6,202.3z"/>
	<path class="st1" d="M75,205.7c0.9,0,1.7-0.8,1.7-1.7c0-0.9-0.8-1.7-1.7-1.7h-1.3c-0.9,0-1.7,0.8-1.7,1.7c0,0.9,0.8,1.7,1.7,1.7H75
		z"/>
	<path class="st1" d="M255.4,0H44.6c-1.9,0-3.4,1.5-3.4,3.4v253.3v3.4v35.7c0,1.9,1.5,3.4,3.4,3.4h210.8c1.9,0,3.4-1.5,3.4-3.4
		v-35.7v-3.4V3.4C258.8,1.5,257.3,0,255.4,0z M252,292.4H48v-32.3h204V292.4z M252,202.3h-0.7c-0.9,0-1.7,0.8-1.7,1.7
		c0,0.9,0.8,1.7,1.7,1.7h0.7v51H48v-51h0.7c0.9,0,1.7-0.8,1.7-1.7c0-0.9-0.8-1.7-1.7-1.7H48V6.8h204V202.3z"/>
	<rect x="68.4" y="25.5" class="st1" width="40.8" height="3.4"/>
	<rect x="68.4" y="39.1" class="st1" width="68" height="3.4"/>
	<rect x="54.8" y="270.3" class="st1" width="54.4" height="3.4"/>
	<rect x="122.8" y="270.3" class="st1" width="27.2" height="3.4"/>
	<rect x="190.8" y="270.3" class="st1" width="54.4" height="3.4"/>
	<rect x="68.4" y="78.2" class="st1" width="108.8" height="6.8"/>
	<rect x="95.6" y="229.5" class="st1" width="54.4" height="3.4"/>
	<rect x="82" y="107.1" class="st1" width="27.2" height="3.4"/>
	<rect x="136.4" y="107.1" class="st1" width="27.2" height="3.4"/>
	<rect x="190.8" y="107.1" class="st1" width="27.2" height="3.4"/>
	<path class="st1" d="M124.5,176.8h51h3.4h52.7v-54.4h-52.7h-3.4h-51h-3.4H68.4v54.4h52.7H124.5z M178.9,125.8h49.3v47.6h-49.3
		V125.8z M124.5,125.8h51v47.6h-51V125.8z M71.8,125.8h49.3v47.6H71.8V125.8z"/>
	<rect x="82" y="134.3" class="st1" width="27.2" height="3.4"/>
	<rect x="82" y="147.9" class="st1" width="27.2" height="3.4"/>
	<rect x="82" y="161.5" class="st1" width="27.2" height="3.4"/>
	<rect x="136.4" y="134.3" class="st1" width="27.2" height="3.4"/>
	<rect x="136.4" y="147.9" class="st1" width="27.2" height="3.4"/>
	<rect x="136.4" y="161.5" class="st1" width="27.2" height="3.4"/>
	<rect x="190.8" y="134.3" class="st1" width="27.2" height="3.4"/>
	<rect x="190.8" y="147.9" class="st1" width="27.2" height="3.4"/>
	<rect x="190.8" y="161.5" class="st1" width="27.2" height="3.4"/>
	<path class="st1" d="M75.5,229.3c-0.7-0.3-2.1-0.7-2.1-1.7c0-0.9,0.9-1.2,1.8-1.2c1,0,2,0.4,2.7,1l1.6-3.1
		c-1.2-0.7-2.5-1.1-3.9-1.2v-2.6h-2v2.6c-2.6,0.2-4.3,2.5-4.3,5c0,2.6,1.7,3.6,3.3,4.2c1.7,0.6,3.3,0.8,3.3,2c0,1-1.1,1.6-2,1.6
		c-1.4,0-2.9-0.9-3.9-1.8l-1.8,3.2c0.7,0.7,1.6,1.1,2.5,1.4c0.9,0.3,1.8,0.5,2.8,0.5v2.5h2v-2.7c2.8-0.7,4.5-2.2,4.5-5.2
		C80.1,231,77.9,230.1,75.5,229.3z"/>
	<path class="st1" d="M228.7,237.3c-3.8-0.5-7.4-0.1-11.2-0.1c-2.2,0-4.3-0.8-6.4-0.9c-2.8-0.1-4.5,1.5-6.1-1.1
		c-0.3-0.4-0.7-0.8-1.3-0.7c-2.1,0.1-3.4,1.2-4.5,2.7c0.2-1.7,0-3.2-1.4-4.2c-1.3-0.9-2.5-0.8-3.7-0.2c-1.4-1-3-1.9-4.6-2.8
		c-0.4-0.2-0.7-0.4-1.1-0.5c3.4-3.1,6.6-6.3,9.7-9.3c1-0.9,0-2.4-1.3-2.2c-6,1.3-11.8,4-15.5,9c-0.5,0.6-0.1,1.5,0.5,1.8
		c0.7,0.5,1.5,1,2.3,1.4c-3.3,2.8-7.8,5.8-9.8,9.2c0.3-0.4-0.4-0.9-0.7-0.5c-0.1,0.1-0.2,0.2-0.3,0.3c-0.2,0.2-0.2,0.5,0,0.7
		c0,0,0.1,0.1,0.1,0.1c0.2,0.2,0.4,0.2,0.6,0.1c4.2-2.4,8.2-5.4,12.1-8.7c0.6,0.3,1.2,0.6,1.8,1c1.2,0.6,2.3,1.2,3.4,1.9
		c0.1,0.1,0.2,0.1,0.3,0.2c-0.8,0.7-1.6,1.5-2.5,2.1c-1.1-0.1-2.2,0.1-3.5,1.4c-0.9,0.9-0.2,2.3,1,2.4c1.4,0.1,2.1-0.4,2.9-0.9
		c1.7,0,4,0.4,5.9,0.3v0c0.1,0.7-0.4,2.6-0.4,3.4c-0.1,1.3,1.6,1.8,2.4,1c2.1-2,3-5,5.9-4.9c0.8,0,2.8,0.8,3.8,0.9
		c0.9-0.4,1.9-0.6,2.9-0.7c0.4,0.4,0.9,0.8,1.4,1.2c0.4,0.1,1.5,0.3,1.9,0.4c4.4,1,10.4-0.8,15.1-0.2
		C230.8,240.9,230.8,237.6,228.7,237.3z M186.1,228.6c-1.6-0.7-1.8-1.5,1.6-3.9c1.7-1.3,3.7-2.2,5.7-2.9
		C191.1,224.1,188.5,226.3,186.1,228.6z"/>
</g>
</svg>
