<?xml version="1.0" encoding="utf-8"?>
<!-- Generator: Adobe Illustrator 19.2.0, SVG Export Plug-In . SVG Version: 6.00 Build 0)  -->
<svg version="1.1" id="Capa_1" xmlns="http://www.w3.org/2000/svg" xmlns:xlink="http://www.w3.org/1999/xlink" x="0px" y="0px"
	 viewBox="0 0 300 300" style="enable-background:new 0 0 300 300;" xml:space="preserve">
<style type="text/css">
	.st0{opacity:0.5;}
	.st1{fill:#FFFFFF;}
	.st2{fill:url(#SVGID_1_);}
	.st3{fill:#333333;}
	.st4{opacity:0.4;}
	.st5{opacity:0.9;fill:#FFFFFF;}
	.st6{fill:url(#SVGID_2_);}
	.st7{fill:#666666;}
	.st8{fill:#D4145A;}
	.st9{fill-rule:evenodd;clip-rule:evenodd;fill:#D4145A;}
	.st10{fill:#1A1A1A;}
	.st11{fill:url(#SVGID_3_);}
	.st12{fill:#7FABC7;}
	.st13{fill:#436289;}
	.st14{fill:#547EA5;}
	.st15{fill:url(#SVGID_4_);}
	.st16{fill:#F2F2F2;}
	.st17{fill:#4D4D4D;}
	.st18{fill:#FFFFFF;stroke:#666666;stroke-miterlimit:10;}
	.st19{fill:url(#SVGID_5_);}
	.st20{opacity:0.3;fill:#FFFFFF;}
	.st21{opacity:0.5;fill:none;stroke:#FFFFFF;stroke-miterlimit:10;}
	.st22{opacity:0.9;}
	.st23{fill:none;stroke:#FFFFFF;stroke-width:0.25;stroke-miterlimit:10;}
	.st24{fill:#E7B46D;}
	.st25{fill:#BE8257;}
	.st26{fill:none;stroke:#E7B46D;stroke-miterlimit:10;}
	.st27{fill:url(#SVGID_6_);}
	.st28{fill:url(#SVGID_7_);}
	.st29{opacity:0.3;}
	.st30{opacity:0.6;}
	.st31{fill:url(#SVGID_8_);}
	.st32{fill:url(#SVGID_9_);}
	.st33{fill:url(#SVGID_10_);}
	.st34{fill:url(#SVGID_13_);}
	.st35{fill:url(#SVGID_14_);}
	.st36{fill:url(#SVGID_15_);}
	.st37{fill:url(#SVGID_16_);}
	.st38{fill:url(#SVGID_17_);}
	.st39{clip-path:url(#SVGID_19_);}
	.st40{opacity:0.5;fill:#FFFFFF;}
	.st41{fill:none;stroke:#333333;stroke-linecap:round;stroke-miterlimit:10;}
	.st42{fill:none;stroke:#4D4D4D;stroke-width:0.5;stroke-miterlimit:10;}
	.st43{fill:url(#SVGID_22_);}
</style>
<g>
	<polygon class="st1" points="84.6,147.6 81.3,154 60.3,142.8 63.7,136.5 	"/>
	<polygon class="st1" points="79,158.2 75.7,164.5 54.7,153.4 58.1,147.1 	"/>
	<polygon class="st1" points="73.4,168.7 70.1,175 49.1,163.9 52.5,157.6 	"/>
	<polygon class="st1" points="67.8,179.3 64.5,185.6 43.5,174.5 46.9,168.2 	"/>
	<polygon class="st1" points="47.4,213.9 30.5,224.4 29.6,204.5 	"/>
	<polygon class="st1" points="62.2,189.8 51.3,210.5 30.3,199.4 41.3,178.7 	"/>
	<polygon class="st1" points="140.9,29.5 135.1,40.4 124.2,34.6 130,23.7 	"/>
	<polygon class="st1" points="137.9,47.3 86.9,143.4 65.9,132.3 116.9,36.2 	"/>
	<path class="st1" d="M107.4,114.9l-53.1,100c0,0,0,0.1-0.1,0.1c0,0.1-0.1,0.1-0.1,0.2c0,0.1-0.1,0.1-0.1,0.2c0,0-0.1,0.1-0.1,0.1
		c-0.1,0.1-0.2,0.1-0.3,0.2c0,0-0.1,0.1-0.1,0.1l-0.1,0.1c0,0,0,0,0,0l-23.9,14.8c-0.4,0.2-0.8,0.4-1.3,0.4c-0.4,0-0.8-0.1-1.1-0.3
		c-0.8-0.4-1.2-1.2-1.3-2l-1.1-28.2c0-0.3,0-0.5,0.1-0.7c0,0,0,0,0,0c0-0.2,0.1-0.3,0.2-0.5l13.2-24.8c0,0,0,0,0,0c0,0,0,0,0,0
		l5.5-10.5c0,0,0,0,0,0c0,0,0,0,0,0l5.5-10.5c0,0,0,0,0,0c0,0,0,0,0,0l5.6-10.5c0,0,0,0,0,0c0,0,0,0,0,0l5.6-10.5c0,0,0,0,0,0
		c0,0,0,0,0,0l9.2-17.3H0v161.4h300.6V114.9L107.4,114.9L107.4,114.9z M40.9,260.8H27.7c-1.3,0-2.4-1.1-2.4-2.4
		c0-1.3,1.1-2.4,2.4-2.4h13.2c1.3,0,2.4,1.1,2.4,2.4C43.3,259.7,42.3,260.8,40.9,260.8z M212.5,137.6h21c1.3,0,2.4,1.1,2.4,2.4
		c0,1.3-1.1,2.4-2.4,2.4h-21c-1.3,0-2.4-1.1-2.4-2.4C210.1,138.6,211.2,137.6,212.5,137.6z M121,137.6h69.4c1.3,0,2.4,1.1,2.4,2.4
		c0,1.3-1.1,2.4-2.4,2.4H121c-1.3,0-2.4-1.1-2.4-2.4C118.6,138.6,119.7,137.6,121,137.6z M98.6,183.4h52.3c1.3,0,2.4,1.1,2.4,2.4
		c0,1.3-1.1,2.4-2.4,2.4H98.6c-1.3,0-2.4-1.1-2.4-2.4C96.2,184.5,97.3,183.4,98.6,183.4z M98.6,200.7h127.3c1.3,0,2.4,1.1,2.4,2.4
		c0,1.3-1.1,2.4-2.4,2.4H98.6c-1.3,0-2.4-1.1-2.4-2.4C96.2,201.8,97.3,200.7,98.6,200.7z M69.9,260.8H56.7c-1.3,0-2.4-1.1-2.4-2.4
		c0-1.3,1.1-2.4,2.4-2.4h13.2c1.3,0,2.4,1.1,2.4,2.4C72.3,259.7,71.3,260.8,69.9,260.8z M98.9,260.8H85.7c-1.3,0-2.4-1.1-2.4-2.4
		c0-1.3,1.1-2.4,2.4-2.4h13.2c1.3,0,2.4,1.1,2.4,2.4C101.3,259.7,100.2,260.8,98.9,260.8z M127.9,260.8h-13.2
		c-1.3,0-2.4-1.1-2.4-2.4c0-1.3,1.1-2.4,2.4-2.4h13.2c1.3,0,2.4,1.1,2.4,2.4C130.3,259.7,129.2,260.8,127.9,260.8z M156.9,260.8
		h-13.2c-1.3,0-2.4-1.1-2.4-2.4c0-1.3,1.1-2.4,2.4-2.4h13.2c1.3,0,2.4,1.1,2.4,2.4C159.3,259.7,158.2,260.8,156.9,260.8z
		 M185.9,260.8h-13.2c-1.3,0-2.4-1.1-2.4-2.4c0-1.3,1.1-2.4,2.4-2.4h13.2c1.3,0,2.4,1.1,2.4,2.4
		C188.3,259.7,187.2,260.8,185.9,260.8z M214.9,260.8h-13.2c-1.3,0-2.4-1.1-2.4-2.4c0-1.3,1.1-2.4,2.4-2.4h13.2
		c1.3,0,2.4,1.1,2.4,2.4C217.3,259.7,216.2,260.8,214.9,260.8z M225.8,222.8h-98.1c-1.3,0-2.4-1.1-2.4-2.4c0-1.3,1.1-2.4,2.4-2.4
		h98.1c1.3,0,2.4,1.1,2.4,2.4C228.2,221.7,227.2,222.8,225.8,222.8z M243.9,260.8h-13.2c-1.3,0-2.4-1.1-2.4-2.4
		c0-1.3,1.1-2.4,2.4-2.4h13.2c1.3,0,2.4,1.1,2.4,2.4C246.2,259.7,245.2,260.8,243.9,260.8z M272.8,260.8h-13.2
		c-1.3,0-2.4-1.1-2.4-2.4c0-1.3,1.1-2.4,2.4-2.4h13.2c1.3,0,2.4,1.1,2.4,2.4C275.2,259.7,274.2,260.8,272.8,260.8z M267.4,219.3v7.9
		c0,1.3-1.1,2.4-2.4,2.4c-1.3,0-2.4-1.1-2.4-2.4v-7.7h-11.8c-1.3,0-2.4-1.1-2.4-2.4c0-1.3,1.1-2.4,2.4-2.4H265c0,0,0,0,0,0h0
		c6.5,0,11.7-5.3,11.7-11.8c0-6.5-5.3-11.8-11.8-11.8h-2.1c-9.1,0-16.5-7.4-16.5-16.5c0-9,7.3-16.4,16.3-16.5v-7.7
		c0-1.3,1.1-2.4,2.4-2.4c1.3,0,2.4,1.1,2.4,2.4v7.7h9.6c1.3,0,2.4,1.1,2.4,2.4c0,1.3-1.1,2.4-2.4,2.4h-14.1
		c-6.5,0-11.8,5.3-11.8,11.8c0,6.5,5.3,11.8,11.8,11.8h2.1c9.1,0,16.5,7.4,16.5,16.5C281.5,211.3,275.4,218.2,267.4,219.3z"/>
</g>
</svg>
