<?xml version="1.0" encoding="utf-8"?>
<!-- Generator: Adobe Illustrator 19.2.0, SVG Export Plug-In . SVG Version: 6.00 Build 0)  -->
<svg version="1.1" id="Capa_1" xmlns="http://www.w3.org/2000/svg" xmlns:xlink="http://www.w3.org/1999/xlink" x="0px" y="0px"
	 viewBox="0 0 286 200" style="enable-background:new 0 0 286 200;" xml:space="preserve">
<style type="text/css">
	.st0{fill:#FFFFFF;}
</style>
<g>
	<polygon class="st0" points="90.3,139 90.3,123 76.3,115 62.2,123 62.2,139 76.3,146.8 	"/>
	<path class="st0" d="M140.7,60.4V41.5l-10-5.9l-12.5,7v28.1L142.8,85l24.8-14V42.8l-12.7-7.2l-10,5.9v18.9"/>
	<polygon class="st0" points="223.4,139 223.4,123 209.3,115 195.3,123 195.3,139 209.3,146.8 	"/>
	<path class="st0" d="M74.1,174.3v-18.9l-10-5.7L51.7,157v28.1l24.8,14l24.8-14V157l-12.5-7.2l-10.3,5.7v18.9"/>
	<path class="st0" d="M207.2,174.3v-18.9l-10-5.7l-12.5,7.2v28.1l24.8,14l24.8-14V157l-12.5-7.2l-10.3,5.7v18.9"/>
	<path class="st0" d="M184.2,152.3l-22.6-12.9l-14.8-25.8v-26l-3.9,2.1l-3.7-2.1v25.6L124.3,139l-22.6,12.9l3.9,2.1v4.5l22.6-12.9
		H158l22.6,12.9V154L184.2,152.3z M133.4,138.2l9.4-16.2l9.4,16.2H133.4z"/>
	<polygon class="st0" points="156.9,8.9 156.9,24.9 142.8,32.9 128.8,24.9 128.8,8.9 142.8,0.9 	"/>
</g>
</svg>
