<?xml version="1.0" encoding="utf-8"?>
<!-- Generator: Adobe Illustrator 19.2.0, SVG Export Plug-In . SVG Version: 6.00 Build 0)  -->
<svg version="1.1" id="Capa_1" xmlns="http://www.w3.org/2000/svg" xmlns:xlink="http://www.w3.org/1999/xlink" x="0px" y="0px"
	 viewBox="0 0 200 123.4" style="enable-background:new 0 0 200 123.4;" xml:space="preserve">
<style type="text/css">
	.st0{fill:#8F1B3A;}
</style>
<g>
	<g>
		<path class="st0" d="M194.3,121.6c-2.4,0-4.1-1.8-4.1-4.2c0-2.5,1.9-4.2,4.1-4.2c2.2,0,4.1,1.7,4.1,4.2
			C198.4,120,196.5,121.6,194.3,121.6 M194.3,114c-1.8,0-3.2,1.4-3.2,3.4c0,1.9,1.2,3.4,3.2,3.4c1.8,0,3.2-1.4,3.2-3.4
			S196.1,114,194.3,114 M193.5,119.9h-0.8v-4.6h1.8c1.1,0,1.7,0.4,1.7,1.3c0,0.8-0.5,1.2-1.2,1.3l1.3,2h-0.9l-1.2-2h-0.7
			L193.5,119.9L193.5,119.9z M194.4,117.2c0.6,0,1.1,0,1.1-0.7c0-0.6-0.5-0.6-1-0.6h-0.9v1.3C193.6,117.2,194.4,117.2,194.4,117.2z"
			/>
		<path class="st0" d="M2,121.8l2.7-2.8h23v-3.5H5.5c-1.8,0-3.3-1.9-3.3-4.2c0-2.3,1.5-4.2,3.3-4.2h27.7l-2.7,2.8h-23v2.7h21.9
			c2,0,3.6,2,3.6,4.6c0,2.5-1.6,4.6-3.6,4.6H2z"/>
		<path class="st0" d="M2,121.8l2.7-2.8h23v-3.5H5.5c-1.8,0-3.3-1.9-3.3-4.2c0-2.3,1.5-4.2,3.3-4.2h27.7l-2.7,2.8h-23v2.7h21.9
			c2,0,3.6,2,3.6,4.6c0,2.5-1.6,4.6-3.6,4.6H2z"/>
		<rect x="52.4" y="107.1" class="st0" width="4.8" height="14.7"/>
		<rect x="76.5" y="107.1" class="st0" width="4.8" height="14.7"/>
		<path class="st0" d="M100.5,121.8l2.8-2.8h22.9v-3.5H104c-1.8,0-3.3-1.9-3.3-4.2c0-2.3,1.5-4.2,3.3-4.2h27.7l-2.7,2.8h-23v2.7
			h21.9c2,0,3.6,2,3.6,4.6c0,2.5-1.6,4.6-3.6,4.6H100.5z"/>
		<path class="st0" d="M100.5,121.8l2.8-2.8h22.9v-3.5H104c-1.8,0-3.3-1.9-3.3-4.2c0-2.3,1.5-4.2,3.3-4.2h27.7l-2.7,2.8h-23v2.7
			h21.9c2,0,3.6,2,3.6,4.6c0,2.5-1.6,4.6-3.6,4.6H100.5z"/>
		<path class="st0" d="M147.7,121.8l17.2-14.7h6.7l17.8,14.7h-8.1l-3.2-2.8h-22.7l-3.3,2.8H147.7z M166.8,109.5l-7.9,6.6h15.7
			L166.8,109.5z"/>
		<path class="st0" d="M81.8,66.7c-15.1-7.5-22-18-22.1-31.1C59.4,17.4,74.3,2.7,92.5,2.7V2C67.2,2,46.6,22.6,46.6,48
			c0,17,9.3,31.9,23,39.9L81.8,66.7z"/>
		<path class="st0" d="M81.8,66.7l6.3,3.5c1.3,0.5,2.7,0.8,4.2,0.8c6,0,10.8-4.9,10.8-10.8c0-4.4-2.5-7.8-6.4-9.9l-4.1-2.4
			L81.8,66.7z"/>
		<path class="st0" d="M103.2,29.1c15.1,7.5,22,18,22.1,31.1c0.2,18.2-14.7,32.9-32.8,32.9v0.6c25.3,0,45.8-20.6,45.8-45.9
			c0-17.1-9.3-31.9-23-39.8L103.2,29.1z"/>
		<path class="st0" d="M103.3,29.1L97,25.6c-1.3-0.5-2.7-0.8-4.2-0.8c-6,0-10.8,4.9-10.8,10.8c0,4.4,2.5,7.8,6.4,9.9l4.1,2.4
			L103.3,29.1z"/>
	</g>
</g>
</svg>
