<?xml version="1.0" encoding="utf-8"?>
<!-- Generator: Adobe Illustrator 19.2.0, SVG Export Plug-In . SVG Version: 6.00 Build 0)  -->
<svg version="1.1" id="Capa_1" xmlns="http://www.w3.org/2000/svg" xmlns:xlink="http://www.w3.org/1999/xlink" x="0px" y="0px"
	 viewBox="0 0 286 200" style="enable-background:new 0 0 286 200;" xml:space="preserve">
<style type="text/css">
	.st0{fill:#FFFFFF;}
</style>
<g>
	<path class="st0" d="M168.4,47.3c-1.5-1.2-3-2.2-4.6-2.9c-1.6-0.7-3.2-1.2-5.2-1.2c-0.3,0-0.6,0-0.9,0.1h-29.5
		c-0.3,0-0.6-0.1-0.9-0.1c-2,0-3.6,0.5-5.2,1.2c-5.4,2.5-10.7,8-15.1,17.6c-4.3,9.5-7.4,23.1-7.4,42c0,3.7,0.1,7.5,0.4,11.6
		c0.2,3.5,3.2,6.3,6.7,6.3c0.1,0,0.3,0,0.4,0c3.7-0.2,6.5-3.4,6.3-7.1c-0.2-3.8-0.3-7.4-0.3-10.8c0-19.3,3.5-31.5,7.3-38.7v46.6
		l-4.9,76.2c-0.4,5.7,4,10.6,9.6,11c5.7,0.4,10.6-3.9,11-9.6l4.3-66.2h5.3l4.3,66.2c0.4,5.7,5.3,10,11,9.6c5.7-0.4,10-5.3,9.6-11
		l-4.9-76.2V65.3c0.3,0.7,0.7,1.4,1,2.1c3.3,7.4,6.2,19.1,6.2,36.6c0,3.4-0.1,7-0.3,10.8c-0.2,3.7,2.6,6.9,6.3,7.1
		c0.1,0,0.3,0,0.4,0c3.5,0,6.5-2.7,6.7-6.3c0.2-4.1,0.4-7.9,0.4-11.6c0-21.6-4-36.2-9.3-45.8C174.3,53.3,171.4,49.8,168.4,47.3z"/>
	<circle class="st0" cx="143" cy="19.7" r="18.8"/>
</g>
</svg>
