<?xml version="1.0" encoding="utf-8"?>
<!-- Generator: Adobe Illustrator 19.2.0, SVG Export Plug-In . SVG Version: 6.00 Build 0)  -->
<svg version="1.1" id="Capa_1" xmlns="http://www.w3.org/2000/svg" xmlns:xlink="http://www.w3.org/1999/xlink" x="0px" y="0px"
	 viewBox="0 0 150 242.9" style="enable-background:new 0 0 150 242.9;" xml:space="preserve">
<style type="text/css">
	.st0{fill:#FFFFFF;}
	.st1{fill:#1EADDB;}
	.st2{font-family:'RobotoCondensed-Bold';}
	.st3{font-size:10px;}
	.st4{fill:none;}
	.st5{font-family:'RobotoCondensed-Regular';}
	.st6{font-size:6px;}
</style>
<g>
	<path class="st0" d="M8.2,241.4c-4.3,0-7.7-3.5-7.7-7.7V57.5h149v176.2c0,4.2-3.5,7.7-7.7,7.7H8.2z"/>
	<path class="st1" d="M149,58v175.7c0,4-3.2,7.2-7.2,7.2H8.2c-4,0-7.2-3.2-7.2-7.2V58H149 M150,57H0v176.7c0,4.5,3.7,8.2,8.2,8.2
		h133.6c4.5,0,8.2-3.7,8.2-8.2V57L150,57z"/>
</g>
<path class="st1" d="M150,57H0V8.2C0,3.7,3.7,0,8.2,0h133.6c4.5,0,8.2,3.7,8.2,8.2V57z"/>
<text transform="matrix(1 0 0 1 32.8517 16.9091)" class="st0 st2 st3">¿QUÉ ES SIISAPASS?</text>
<path class="st0" d="M85.7,20.8H64.3c-2,0-3.7,1.7-3.7,3.7v18.1c0,2,1.6,3.7,3.7,3.7h5.8l4.8,6.6l4.8-6.6h5.8c2,0,3.7-1.6,3.7-3.7
	V24.5C89.3,22.5,87.7,20.8,85.7,20.8z M71.5,27.5c0.9-0.7,2-1,3.4-1c1.5,0,2.7,0.4,3.6,1.1s1.3,1.8,1.3,3.1c0,0.8-0.2,1.5-0.7,2.2
	c-0.5,0.7-1.1,1.2-1.8,1.6c-0.4,0.3-0.7,0.6-0.8,0.9c-0.1,0.2-0.2,0.5-0.2,0.8c0,0.3-0.2,0.4-0.5,0.4h-2.2c-0.3,0-0.5-0.2-0.5-0.5
	c0.1-0.6,0.2-1.1,0.5-1.5c0.3-0.4,0.9-1,1.7-1.5c0.4-0.3,0.8-0.6,1-1c0.2-0.4,0.4-0.8,0.4-1.4c0-0.5-0.1-1-0.4-1.3
	c-0.3-0.3-0.7-0.5-1.2-0.5c-0.4,0-0.8,0.1-1.1,0.4c-0.2,0.2-0.3,0.4-0.4,0.6c-0.1,0.3-0.4,0.5-0.7,0.5h-2c-0.3,0-0.5-0.2-0.4-0.5
	C70.3,28.9,70.7,28.1,71.5,27.5z M73,39.9v-1.2c0-0.4,0.3-0.7,0.7-0.7h1.8c0.4,0,0.7,0.3,0.7,0.7v1.2c0,0.4-0.3,0.7-0.7,0.7h-1.8
	C73.3,40.6,73,40.3,73,39.9z"/>
<rect x="9.9" y="67.6" class="st4" width="130" height="170.3"/>
<text transform="matrix(1 0 0 1 9.8608 72.0797)"><tspan x="0" y="0" class="st5 st6">Es una clave de uso personal, confidencial, </tspan><tspan x="0" y="7.2" class="st5 st6">intransferible que SIISA genera como consecuencia </tspan><tspan x="0" y="14.4" class="st5 st6">del proceso de verificación de la identidad del titular </tspan><tspan x="0" y="21.6" class="st5 st6">de los datos que la solicite a través de las facilidades </tspan><tspan x="0" y="28.8" class="st5 st6">que considera este site, y solo en el evento de haber </tspan><tspan x="0" y="36" class="st5 st6">resultado positivo este proceso de validación ante el </tspan><tspan x="0" y="43.2" class="st5 st6">SRCeI.</tspan><tspan x="0" y="57.6" class="st5 st6">Esta clave personal, confidencial e intransferible es </tspan><tspan x="0" y="64.8" class="st5 st6">condición esencial de disponer para hacer efectivos </tspan><tspan x="0" y="72" class="st5 st6">por parte del titular de los datos, los derechos </tspan><tspan x="0" y="79.2" class="st5 st6">consagrados en la Ley 19.628 y Ley 20.575 como </tspan><tspan x="0" y="86.4" class="st5 st6">también para efecto de futuras compras en este site, </tspan><tspan x="0" y="93.6" class="st5 st6">siendo por lo tanto de su exclusiva responsabilidad su </tspan><tspan x="0" y="100.8" class="st5 st6">manejo. </tspan><tspan x="0" y="115.2" class="st5 st6">Para vuestra seguridad en su calidad de titular de los </tspan><tspan x="0" y="122.4" class="st5 st6">datos, esta clave tendrá una vigencia de 6 meses </tspan><tspan x="0" y="129.6" class="st5 st6">contados a partir de su fecha de emisión, fecha a </tspan><tspan x="0" y="136.8" class="st5 st6">partir de la cual deberá ser renovada.</tspan></text>
<path class="st1" d="M150,217.2H0v17.4c0,4.5,3.7,8.2,8.2,8.2h133.5c4.5,0,8.2-3.7,8.2-8.2V217.2z"/>
<g>
	<g>
		<path class="st0" d="M57.5,231.5c0,0.8-0.3,1.4-0.7,1.8c-0.4,0.4-1,0.6-1.8,0.6c-0.8,0-1.4-0.3-1.8-0.8c-0.4-0.5-0.6-1.3-0.6-2.3
			v-1.2c0-1,0.2-1.7,0.7-2.3c0.4-0.5,1.1-0.8,1.8-0.8c0.8,0,1.4,0.2,1.8,0.6c0.4,0.4,0.6,1.1,0.7,1.9h-1.4c0-0.5-0.1-0.8-0.2-1
			s-0.4-0.3-0.8-0.3c-0.4,0-0.7,0.1-0.8,0.4s-0.2,0.7-0.3,1.3v1.3c0,0.7,0.1,1.2,0.2,1.5s0.4,0.4,0.8,0.4c0.4,0,0.6-0.1,0.8-0.3
			c0.1-0.2,0.2-0.5,0.2-1H57.5z"/>
		<path class="st0" d="M62.1,230.8h-2.2v1.9h2.6v1.2h-4.1v-7.1h4.1v1.2h-2.6v1.7h2.2V230.8z"/>
		<path class="st0" d="M65.5,231.2h-0.7v2.6h-1.4v-7.1h2.3c0.7,0,1.3,0.2,1.7,0.6c0.4,0.4,0.6,0.9,0.6,1.6c0,0.9-0.3,1.6-1,2
			l1.2,2.9v0.1h-1.5L65.5,231.2z M64.8,230h0.8c0.3,0,0.5-0.1,0.6-0.3s0.2-0.4,0.2-0.8c0-0.7-0.3-1.1-0.8-1.1h-0.8V230z"/>
		<path class="st0" d="M71,231.2h-0.7v2.6h-1.4v-7.1h2.3c0.7,0,1.3,0.2,1.7,0.6c0.4,0.4,0.6,0.9,0.6,1.6c0,0.9-0.3,1.6-1,2l1.2,2.9
			v0.1h-1.5L71,231.2z M70.3,230h0.8c0.3,0,0.5-0.1,0.6-0.3s0.2-0.4,0.2-0.8c0-0.7-0.3-1.1-0.8-1.1h-0.8V230z"/>
		<path class="st0" d="M77.8,232.4h-2l-0.4,1.5h-1.5l2.2-7.1h1.3l2.2,7.1h-1.5L77.8,232.4z M76.2,231.2h1.3l-0.7-2.5L76.2,231.2z"/>
		<path class="st0" d="M82.5,231.2h-0.7v2.6h-1.4v-7.1h2.3c0.7,0,1.3,0.2,1.7,0.6c0.4,0.4,0.6,0.9,0.6,1.6c0,0.9-0.3,1.6-1,2
			l1.2,2.9v0.1h-1.5L82.5,231.2z M81.8,230h0.8c0.3,0,0.5-0.1,0.6-0.3c0.1-0.2,0.2-0.4,0.2-0.8c0-0.7-0.3-1.1-0.8-1.1h-0.8V230z"/>
		<path class="st0" d="M95.1,229.2l1-2.4h1.6l-1.7,3.5l1.7,3.6H96l-1-2.5l-1,2.5h-1.7l1.7-3.6l-1.7-3.5h1.6L95.1,229.2z"/>
	</g>
	<g>
		<path class="st0" d="M101.3,236.7H88.9v-12.4h12.4V236.7z M89.9,235.7h10.4v-10.4H89.9V235.7z"/>
	</g>
</g>
</svg>
