<?xml version="1.0" encoding="utf-8"?>
<!-- Generator: Adobe Illustrator 19.2.0, SVG Export Plug-In . SVG Version: 6.00 Build 0)  -->
<svg version="1.1" id="Capa_1" xmlns="http://www.w3.org/2000/svg" xmlns:xlink="http://www.w3.org/1999/xlink" x="0px" y="0px"
	 viewBox="0 0 150 242.9" style="enable-background:new 0 0 150 242.9;" xml:space="preserve">
<style type="text/css">
	.st0{fill:#FFFFFF;}
	.st1{fill:#1EADDB;}
	.st2{fill:none;}
	.st3{font-family:'MicrosoftSansSerif';}
	.st4{font-size:6px;}
</style>
<g>
	<g>
		<path class="st0" d="M9.5,239.3c-4.3,0-7.7-3.5-7.7-7.7v-173h146.5v173c0,4.3-3.5,7.7-7.7,7.7H9.5z"/>
		<path class="st1" d="M147.7,59.1v172.5c0,4-3.2,7.2-7.2,7.2H9.5c-4,0-7.2-3.2-7.2-7.2V59.1H147.7 M148.7,58.1H1.3v173.5
			c0,4.5,3.7,8.2,8.2,8.2h131c4.5,0,8.2-3.7,8.2-8.2V58.1L148.7,58.1z"/>
	</g>
	<path class="st1" d="M148.7,58.1H1.3V10.3c0-4.5,3.7-8.2,8.2-8.2h131.1c4.5,0,8.2,3.7,8.2,8.2V58.1z"/>
	<g>
		<path class="st0" d="M36.5,15.6c0,0.4,0,0.7-0.1,1c-0.1,0.3-0.2,0.5-0.5,0.8c-0.2,0.3-0.4,0.5-0.5,0.7c-0.1,0.2-0.1,0.3-0.1,0.5
			c0,0.3,0,0.4,0.1,0.6c0.1,0.1,0.2,0.2,0.4,0.2c0.2,0,0.3-0.1,0.4-0.2c0.1-0.1,0.2-0.3,0.2-0.6h1.4c0,0.6-0.2,1.1-0.5,1.4
			c-0.3,0.3-0.8,0.5-1.4,0.5c-0.6,0-1.1-0.2-1.4-0.5c-0.3-0.3-0.5-0.8-0.5-1.4c0-0.5,0.2-1,0.6-1.5l0.4-0.5c0.1-0.1,0.2-0.3,0.2-0.4
			c0.1-0.1,0.1-0.4,0.1-0.7H36.5z M36.6,14.1c0,0.2-0.1,0.4-0.2,0.5c-0.1,0.1-0.3,0.2-0.5,0.2c-0.2,0-0.4-0.1-0.5-0.2
			c-0.1-0.1-0.2-0.3-0.2-0.5c0-0.2,0.1-0.4,0.2-0.5c0.1-0.1,0.3-0.2,0.5-0.2c0.2,0,0.4,0.1,0.5,0.2C36.6,13.7,36.6,13.9,36.6,14.1z"
			/>
		<path class="st0" d="M43.4,15.7c0,1.2-0.3,2-0.9,2.5l1,0.9l-0.9,0.8l-1.3-1.2l-0.4,0c-0.8,0-1.4-0.3-1.9-0.8
			c-0.4-0.5-0.7-1.3-0.7-2.2v-1.1c0-1,0.2-1.7,0.7-2.2c0.4-0.5,1.1-0.8,1.9-0.8c0.8,0,1.4,0.3,1.8,0.8c0.4,0.5,0.7,1.2,0.7,2.2V15.7
			z M42,14.6c0-0.6-0.1-1.1-0.3-1.4c-0.2-0.3-0.5-0.5-0.8-0.5s-0.7,0.1-0.8,0.4c-0.2,0.3-0.3,0.7-0.3,1.4v1.2c0,0.6,0.1,1.1,0.3,1.4
			c0.2,0.3,0.5,0.5,0.8,0.5c0.4,0,0.6-0.2,0.8-0.5s0.3-0.8,0.3-1.4V14.6z"/>
		<path class="st0" d="M49,11.7v4.8c0,0.7-0.2,1.3-0.6,1.7c-0.4,0.4-1,0.6-1.7,0.6c-0.7,0-1.3-0.2-1.7-0.6s-0.6-1-0.6-1.7v-4.8h1.4
			v4.8c0,0.4,0.1,0.7,0.2,0.8c0.1,0.2,0.4,0.3,0.7,0.3c0.3,0,0.6-0.1,0.7-0.3c0.1-0.2,0.2-0.4,0.2-0.8v-4.8H49z"/>
		<path class="st0" d="M53.7,15.7h-2.2v1.9h2.6v1.2h-4v-7h4v1.2h-2.6v1.7h2.2V15.7z M52.5,9.8H54l-1.3,1.5h-1.1L52.5,9.8z"/>
		<path class="st0" d="M60.8,15.7h-2.2v1.9h2.6v1.2h-4v-7h4v1.2h-2.6v1.7h2.2V15.7z"/>
		<path class="st0" d="M64.9,16.9c0-0.3-0.1-0.5-0.2-0.6s-0.4-0.3-0.8-0.5c-0.7-0.3-1.2-0.6-1.5-0.9c-0.3-0.4-0.5-0.8-0.5-1.3
			c0-0.6,0.2-1.1,0.6-1.4c0.4-0.4,0.9-0.5,1.6-0.5c0.4,0,0.8,0.1,1.1,0.3s0.6,0.4,0.8,0.8s0.3,0.7,0.3,1.1H65c0-0.3-0.1-0.6-0.2-0.7
			c-0.1-0.2-0.3-0.3-0.6-0.3c-0.2,0-0.4,0.1-0.6,0.2c-0.1,0.1-0.2,0.3-0.2,0.6c0,0.2,0.1,0.4,0.2,0.5c0.2,0.2,0.4,0.3,0.8,0.5
			c0.7,0.2,1.2,0.5,1.5,0.9c0.3,0.4,0.5,0.8,0.5,1.4c0,0.6-0.2,1.1-0.6,1.4c-0.4,0.3-0.9,0.5-1.6,0.5c-0.5,0-0.9-0.1-1.2-0.3
			c-0.4-0.2-0.7-0.5-0.9-0.8c-0.2-0.3-0.3-0.8-0.3-1.2h1.4c0,0.4,0.1,0.7,0.2,0.9c0.2,0.2,0.4,0.3,0.8,0.3
			C64.7,17.6,64.9,17.4,64.9,16.9z"/>
		<path class="st0" d="M72.5,16.9c0-0.3-0.1-0.5-0.2-0.6c-0.1-0.1-0.4-0.3-0.8-0.5c-0.7-0.3-1.2-0.6-1.5-0.9
			c-0.3-0.4-0.5-0.8-0.5-1.3c0-0.6,0.2-1.1,0.6-1.4c0.4-0.4,0.9-0.5,1.6-0.5c0.4,0,0.8,0.1,1.1,0.3c0.3,0.2,0.6,0.4,0.8,0.8
			c0.2,0.3,0.3,0.7,0.3,1.1h-1.4c0-0.3-0.1-0.6-0.2-0.7c-0.1-0.2-0.3-0.3-0.6-0.3c-0.2,0-0.4,0.1-0.6,0.2s-0.2,0.3-0.2,0.6
			c0,0.2,0.1,0.4,0.2,0.5s0.4,0.3,0.8,0.5c0.7,0.2,1.2,0.5,1.5,0.9c0.3,0.4,0.5,0.8,0.5,1.4c0,0.6-0.2,1.1-0.6,1.4
			c-0.4,0.3-0.9,0.5-1.6,0.5c-0.5,0-0.9-0.1-1.2-0.3c-0.4-0.2-0.7-0.5-0.9-0.8c-0.2-0.3-0.3-0.8-0.3-1.2h1.4c0,0.4,0.1,0.7,0.2,0.9
			c0.2,0.2,0.4,0.3,0.8,0.3C72.3,17.6,72.5,17.4,72.5,16.9z"/>
		<path class="st0" d="M76.3,18.7h-1.4v-7h1.4V18.7z"/>
		<path class="st0" d="M79,18.7h-1.4v-7H79V18.7z"/>
		<path class="st0" d="M83.1,16.9c0-0.3-0.1-0.5-0.2-0.6c-0.1-0.1-0.4-0.3-0.8-0.5c-0.7-0.3-1.2-0.6-1.5-0.9
			c-0.3-0.4-0.5-0.8-0.5-1.3c0-0.6,0.2-1.1,0.6-1.4c0.4-0.4,0.9-0.5,1.6-0.5c0.4,0,0.8,0.1,1.1,0.3c0.3,0.2,0.6,0.4,0.8,0.8
			c0.2,0.3,0.3,0.7,0.3,1.1h-1.4c0-0.3-0.1-0.6-0.2-0.7c-0.1-0.2-0.3-0.3-0.6-0.3c-0.2,0-0.4,0.1-0.6,0.2s-0.2,0.3-0.2,0.6
			c0,0.2,0.1,0.4,0.2,0.5s0.4,0.3,0.8,0.5c0.7,0.2,1.2,0.5,1.5,0.9c0.3,0.4,0.5,0.8,0.5,1.4c0,0.6-0.2,1.1-0.6,1.4
			c-0.4,0.3-0.9,0.5-1.6,0.5c-0.5,0-0.9-0.1-1.2-0.3c-0.4-0.2-0.7-0.5-0.9-0.8C80.1,17.4,80,17,80,16.5h1.4c0,0.4,0.1,0.7,0.2,0.9
			c0.2,0.2,0.4,0.3,0.8,0.3C82.9,17.6,83.1,17.4,83.1,16.9z"/>
		<path class="st0" d="M88.8,17.3h-1.9l-0.4,1.4H85l2.2-7h1.3l2.2,7h-1.5L88.8,17.3z M87.2,16.1h1.3l-0.7-2.5L87.2,16.1z"/>
		<path class="st0" d="M92.8,16.2v2.5h-1.4v-7h2.4c0.7,0,1.2,0.2,1.7,0.6c0.4,0.4,0.6,1,0.6,1.7s-0.2,1.2-0.6,1.6
			c-0.4,0.4-1,0.6-1.7,0.6H92.8z M92.8,15.1h1c0.3,0,0.5-0.1,0.6-0.3s0.2-0.4,0.2-0.8c0-0.3-0.1-0.6-0.2-0.8
			c-0.2-0.2-0.4-0.3-0.6-0.3h-1V15.1z"/>
		<path class="st0" d="M99.4,17.3h-1.9l-0.4,1.4h-1.5l2.2-7h1.3l2.2,7h-1.5L99.4,17.3z M97.8,16.1h1.3l-0.7-2.5L97.8,16.1z"/>
		<path class="st0" d="M104.9,16.9c0-0.3-0.1-0.5-0.2-0.6c-0.1-0.1-0.4-0.3-0.8-0.5c-0.7-0.3-1.2-0.6-1.5-0.9
			c-0.3-0.4-0.5-0.8-0.5-1.3c0-0.6,0.2-1.1,0.6-1.4c0.4-0.4,0.9-0.5,1.6-0.5c0.4,0,0.8,0.1,1.1,0.3c0.3,0.2,0.6,0.4,0.8,0.8
			c0.2,0.3,0.3,0.7,0.3,1.1h-1.4c0-0.3-0.1-0.6-0.2-0.7c-0.1-0.2-0.3-0.3-0.6-0.3c-0.2,0-0.4,0.1-0.6,0.2c-0.1,0.1-0.2,0.3-0.2,0.6
			c0,0.2,0.1,0.4,0.2,0.5s0.4,0.3,0.8,0.5c0.7,0.2,1.2,0.5,1.5,0.9c0.3,0.4,0.5,0.8,0.5,1.4c0,0.6-0.2,1.1-0.6,1.4
			c-0.4,0.3-0.9,0.5-1.6,0.5c-0.5,0-0.9-0.1-1.2-0.3c-0.4-0.2-0.7-0.5-0.9-0.8c-0.2-0.3-0.3-0.8-0.3-1.2h1.4c0,0.4,0.1,0.7,0.2,0.9
			c0.2,0.2,0.4,0.3,0.8,0.3C104.7,17.6,104.9,17.4,104.9,16.9z"/>
		<path class="st0" d="M110.2,16.9c0-0.3-0.1-0.5-0.2-0.6c-0.1-0.1-0.4-0.3-0.8-0.5c-0.7-0.3-1.2-0.6-1.5-0.9
			c-0.3-0.4-0.5-0.8-0.5-1.3c0-0.6,0.2-1.1,0.6-1.4c0.4-0.4,0.9-0.5,1.6-0.5c0.4,0,0.8,0.1,1.1,0.3c0.3,0.2,0.6,0.4,0.8,0.8
			c0.2,0.3,0.3,0.7,0.3,1.1h-1.4c0-0.3-0.1-0.6-0.2-0.7c-0.1-0.2-0.3-0.3-0.6-0.3c-0.2,0-0.4,0.1-0.6,0.2s-0.2,0.3-0.2,0.6
			c0,0.2,0.1,0.4,0.2,0.5s0.4,0.3,0.8,0.5c0.7,0.2,1.2,0.5,1.5,0.9c0.3,0.4,0.5,0.8,0.5,1.4c0,0.6-0.2,1.1-0.6,1.4
			c-0.4,0.3-0.9,0.5-1.6,0.5c-0.5,0-0.9-0.1-1.2-0.3c-0.4-0.2-0.7-0.5-0.9-0.8c-0.2-0.3-0.3-0.8-0.3-1.2h1.4c0,0.4,0.1,0.7,0.2,0.9
			c0.2,0.2,0.4,0.3,0.8,0.3C110,17.6,110.2,17.4,110.2,16.9z"/>
		<path class="st0" d="M113.5,16.5c0-0.4,0-0.8,0.1-1.1c0.1-0.3,0.2-0.5,0.5-0.8c0.2-0.3,0.4-0.5,0.5-0.7c0.1-0.2,0.1-0.3,0.1-0.5
			c0-0.5-0.2-0.8-0.5-0.8c-0.2,0-0.3,0.1-0.4,0.2c-0.1,0.1-0.2,0.3-0.2,0.6h-1.4c0-0.6,0.2-1.1,0.5-1.4c0.3-0.3,0.8-0.5,1.4-0.5
			c0.6,0,1.1,0.2,1.4,0.5c0.3,0.3,0.5,0.8,0.5,1.4c0,0.5-0.2,1-0.6,1.4l-0.4,0.5c-0.1,0.2-0.2,0.3-0.3,0.5c-0.1,0.2-0.1,0.4-0.1,0.7
			H113.5z M113.4,18c0-0.2,0.1-0.4,0.2-0.5c0.1-0.1,0.3-0.2,0.5-0.2c0.2,0,0.4,0.1,0.5,0.2s0.2,0.3,0.2,0.5c0,0.2-0.1,0.4-0.2,0.5
			c-0.1,0.1-0.3,0.2-0.5,0.2c-0.2,0-0.4-0.1-0.5-0.2C113.4,18.4,113.4,18.2,113.4,18z"/>
	</g>
	<path class="st0" d="M85.5,22.5h-21c-2,0-3.6,1.6-3.6,3.6v17.8c0,2,1.6,3.6,3.6,3.6h5.7l4.8,6.5l4.8-6.5h5.7c2,0,3.6-1.6,3.6-3.6
		V26.1C89.1,24.1,87.5,22.5,85.5,22.5z M71.5,29.1c0.9-0.7,2-1,3.4-1c1.5,0,2.7,0.4,3.5,1.1c0.9,0.8,1.3,1.8,1.3,3
		c0,0.8-0.2,1.5-0.7,2.2c-0.5,0.7-1.1,1.2-1.8,1.5c-0.4,0.3-0.7,0.6-0.8,0.9c-0.1,0.2-0.2,0.5-0.2,0.8c0,0.3-0.2,0.4-0.5,0.4h-2.2
		c-0.3,0-0.5-0.2-0.5-0.5c0.1-0.6,0.2-1.1,0.5-1.4c0.3-0.4,0.9-1,1.7-1.5c0.4-0.3,0.8-0.6,1-1s0.4-0.8,0.4-1.3c0-0.5-0.1-1-0.4-1.2
		c-0.3-0.3-0.7-0.5-1.2-0.5c-0.4,0-0.8,0.1-1.1,0.4c-0.2,0.2-0.3,0.4-0.4,0.6c-0.1,0.3-0.4,0.5-0.7,0.5h-2c-0.3,0-0.5-0.2-0.4-0.5
		C70.4,30.5,70.8,29.7,71.5,29.1z M73,41.3v-1.2c0-0.4,0.3-0.7,0.7-0.7h1.8c0.4,0,0.7,0.3,0.7,0.7v1.2c0,0.4-0.3,0.7-0.7,0.7h-1.8
		C73.3,42,73,41.7,73,41.3z"/>
	<path class="st1" d="M148.7,215.5H1.3v17c0,4.5,3.7,8.2,8.2,8.2h131c4.5,0,8.2-3.7,8.2-8.2V215.5z"/>
	<g>
		<g>
			<path class="st0" d="M57.8,229.6c0,0.8-0.3,1.4-0.7,1.8c-0.4,0.4-1,0.6-1.7,0.6c-0.8,0-1.4-0.3-1.8-0.8c-0.4-0.5-0.6-1.3-0.6-2.2
				v-1.2c0-1,0.2-1.7,0.7-2.2c0.4-0.5,1-0.8,1.8-0.8c0.8,0,1.3,0.2,1.7,0.6c0.4,0.4,0.6,1,0.7,1.8h-1.4c0-0.5-0.1-0.8-0.2-1
				s-0.4-0.3-0.8-0.3c-0.4,0-0.6,0.1-0.8,0.4s-0.2,0.7-0.2,1.3v1.3c0,0.7,0.1,1.2,0.2,1.4c0.2,0.3,0.4,0.4,0.8,0.4
				c0.4,0,0.6-0.1,0.8-0.3c0.1-0.2,0.2-0.5,0.2-1H57.8z"/>
			<path class="st0" d="M62.3,228.9h-2.2v1.9h2.6v1.2h-4v-7h4v1.2h-2.6v1.7h2.2V228.9z"/>
			<path class="st0" d="M65.6,229.4h-0.7v2.6h-1.4v-7h2.3c0.7,0,1.3,0.2,1.6,0.6c0.4,0.4,0.6,0.9,0.6,1.6c0,0.9-0.3,1.6-1,1.9
				l1.2,2.9v0.1h-1.5L65.6,229.4z M64.9,228.2h0.8c0.3,0,0.5-0.1,0.6-0.3c0.1-0.2,0.2-0.4,0.2-0.8c0-0.7-0.3-1.1-0.8-1.1h-0.8V228.2
				z"/>
			<path class="st0" d="M71.1,229.4h-0.7v2.6H69v-7h2.3c0.7,0,1.3,0.2,1.6,0.6c0.4,0.4,0.6,0.9,0.6,1.6c0,0.9-0.3,1.6-1,1.9l1.2,2.9
				v0.1h-1.5L71.1,229.4z M70.4,228.2h0.8c0.3,0,0.5-0.1,0.6-0.3s0.2-0.4,0.2-0.8c0-0.7-0.3-1.1-0.8-1.1h-0.8V228.2z"/>
			<path class="st0" d="M77.8,230.5h-1.9l-0.4,1.4H74l2.2-7h1.3l2.2,7h-1.5L77.8,230.5z M76.1,229.3h1.3l-0.7-2.5L76.1,229.3z"/>
			<path class="st0" d="M82.4,229.4h-0.7v2.6h-1.4v-7h2.3c0.7,0,1.3,0.2,1.6,0.6c0.4,0.4,0.6,0.9,0.6,1.6c0,0.9-0.3,1.6-1,1.9
				l1.2,2.9v0.1h-1.5L82.4,229.4z M81.7,228.2h0.8c0.3,0,0.5-0.1,0.6-0.3c0.1-0.2,0.2-0.4,0.2-0.8c0-0.7-0.3-1.1-0.8-1.1h-0.8V228.2
				z"/>
			<path class="st0" d="M94.7,227.3l0.9-2.4h1.6l-1.6,3.5l1.7,3.5h-1.6l-1-2.4l-1,2.4h-1.6l1.7-3.5l-1.6-3.5h1.6L94.7,227.3z"/>
		</g>
		<g>
			<path class="st0" d="M100.8,234.7H88.7v-12.1h12.1V234.7z M89.7,233.7h10.2v-10.2H89.7V233.7z"/>
		</g>
	</g>
</g>
<rect x="10" y="66.6" class="st2" width="130" height="149.6"/>
<text transform="matrix(1 0 0 1 17.4285 70.9266)"><tspan x="0" y="0" class="st3 st4">Es una clave de uso personal, confidencial, </tspan><tspan x="7.8" y="7.2" class="st3 st4">intransferible que SIISA genera como </tspan><tspan x="-4.4" y="14.4" class="st3 st4">consecuencia del proceso de verificación de la </tspan><tspan x="-6" y="21.6" class="st3 st4">identidad del titular de los datos que la solicite a </tspan><tspan x="-6.8" y="28.8" class="st3 st4">través de las facilidades que considera este site, </tspan><tspan x="-4.1" y="36" class="st3 st4">y solo en el evento de haber resultado positivo </tspan><tspan x="1.9" y="43.2" class="st3 st4">este proceso de validación ante el SRCeI.</tspan><tspan x="-6.6" y="57.6" class="st3 st4">Esta clave personal, confidencial e intransferible </tspan><tspan x="-2.5" y="64.8" class="st3 st4">es condición esencial de disponer para hacer </tspan><tspan x="-2.4" y="72" class="st3 st4">efectivos por parte del titular de los datos, los </tspan><tspan x="-3.6" y="79.2" class="st3 st4">derechos consagrados en la Ley 19.628 y Ley </tspan><tspan x="-1.1" y="86.4" class="st3 st4">20.575 como también para efecto de futuras </tspan><tspan x="-4.4" y="93.6" class="st3 st4">compras en este site, siendo por lo tanto de su </tspan><tspan x="7.9" y="100.8" class="st3 st4">exclusiva responsabilidad su manejo. </tspan><tspan x="-4.1" y="115.2" class="st3 st4">Para vuestra seguridad en su calidad de titular </tspan><tspan x="-7.2" y="122.4" class="st3 st4">de los datos, esta clave tendrá una vigencia de 6 </tspan><tspan x="-6.7" y="129.6" class="st3 st4">meses contados a partir de su fecha de emisión, </tspan><tspan x="-2.7" y="136.8" class="st3 st4">fecha a partir de la cual deberá ser renovada.</tspan></text>
<g>
	<path class="st0" d="M139.9,2.1c4.9,0,8.8,3.9,8.8,8.8V232c0,4.9-3.9,8.8-8.8,8.8H10.1c-4.9,0-8.8-3.9-8.8-8.8V10.9
		c0-4.9,3.9-8.8,8.8-8.8H139.9 M139.9,1.1H10.1c-5.4,0-9.8,4.4-9.8,9.8V232c0,5.4,4.4,9.8,9.8,9.8h129.9c5.4,0,9.8-4.4,9.8-9.8V10.9
		C149.7,5.5,145.3,1.1,139.9,1.1L139.9,1.1z"/>
</g>
</svg>
