<?xml version="1.0" encoding="utf-8"?>
<!-- Generator: Adobe Illustrator 19.2.0, SVG Export Plug-In . SVG Version: 6.00 Build 0)  -->
<svg version="1.1" id="Capa_1" xmlns="http://www.w3.org/2000/svg" xmlns:xlink="http://www.w3.org/1999/xlink" x="0px" y="0px"
	 viewBox="0 0 300 300" style="enable-background:new 0 0 300 300;" xml:space="preserve">
<style type="text/css">
	.st0{opacity:0.5;}
	.st1{fill:#FFFFFF;}
	.st2{fill:url(#SVGID_1_);}
	.st3{fill:#333333;}
	.st4{opacity:0.4;}
	.st5{opacity:0.9;fill:#FFFFFF;}
	.st6{fill:url(#SVGID_2_);}
	.st7{fill:#666666;}
	.st8{fill:#D4145A;}
	.st9{fill-rule:evenodd;clip-rule:evenodd;fill:#D4145A;}
	.st10{fill:#1A1A1A;}
	.st11{fill:url(#SVGID_3_);}
	.st12{fill:#7FABC7;}
	.st13{fill:#436289;}
	.st14{fill:#547EA5;}
	.st15{fill:url(#SVGID_4_);}
	.st16{fill:#F2F2F2;}
	.st17{fill:#4D4D4D;}
	.st18{fill:#FFFFFF;stroke:#666666;stroke-miterlimit:10;}
	.st19{fill:url(#SVGID_5_);}
	.st20{opacity:0.3;fill:#FFFFFF;}
	.st21{opacity:0.5;fill:none;stroke:#FFFFFF;stroke-miterlimit:10;}
	.st22{opacity:0.9;}
	.st23{fill:none;stroke:#FFFFFF;stroke-width:0.25;stroke-miterlimit:10;}
	.st24{fill:#E7B46D;}
	.st25{fill:#BE8257;}
	.st26{fill:none;stroke:#E7B46D;stroke-miterlimit:10;}
	.st27{fill:url(#SVGID_6_);}
	.st28{fill:url(#SVGID_7_);}
	.st29{opacity:0.3;}
	.st30{opacity:0.6;}
	.st31{fill:url(#SVGID_8_);}
	.st32{fill:url(#SVGID_9_);}
	.st33{fill:url(#SVGID_10_);}
	.st34{fill:url(#SVGID_13_);}
	.st35{fill:url(#SVGID_14_);}
	.st36{fill:url(#SVGID_15_);}
	.st37{fill:url(#SVGID_16_);}
	.st38{fill:url(#SVGID_17_);}
	.st39{clip-path:url(#SVGID_19_);}
	.st40{opacity:0.5;fill:#FFFFFF;}
	.st41{fill:none;stroke:#333333;stroke-linecap:round;stroke-miterlimit:10;}
	.st42{fill:none;stroke:#4D4D4D;stroke-width:0.5;stroke-miterlimit:10;}
	.st43{fill:url(#SVGID_22_);}
</style>
<g transform="translate(0,-952.36216)" class="st22">
	<path class="st1" d="M36.4,952.4V1253h170.2l57.1-57.1V952.4L36.4,952.4L36.4,952.4z M150,988.4c25.7,0,46.6,20.9,46.6,46.6
		c0,25.7-20.9,46.6-46.6,46.6c-25.7,0-46.6-20.9-46.6-46.6C103.4,1009.3,124.3,988.4,150,988.4z M150,995.7
		c-21.7,0-39.3,17.6-39.3,39.3c0,21.7,17.5,39.3,39.3,39.3c21.7,0,39.3-17.5,39.3-39.3C189.3,1013.2,171.7,995.7,150,995.7z
		 M150,1011.9c7.1,0,12.9,5.8,12.9,12.9c0,7.1-5.8,12.9-12.9,12.9c-7.1,0-12.9-5.8-12.9-12.9C137.1,1017.7,142.9,1011.9,150,1011.9z
		 M150,1019.2c-3.1,0-5.6,2.4-5.6,5.6c0,3.1,2.4,5.6,5.6,5.6c3.1,0,5.6-2.4,5.6-5.6C155.5,1021.7,153.1,1019.2,150,1019.2z
		 M127.9,1035.1h7.3v15.6h29.6v-15.6h7.3v22.9h-44.2v-22.1L127.9,1035.1z M91.9,1102.9h116.1v7.3H91.9v-6.5L91.9,1102.9z
		 M91.9,1131.5h116.1v7.3H91.9v-6.5L91.9,1131.5z M91.9,1160.2h116.1v7.3H91.9v-6.5L91.9,1160.2z M208.7,1198h42.5l-42.5,42.5V1198z
		"/>
</g>
</svg>
