<?xml version="1.0" encoding="utf-8"?>
<!-- Generator: Adobe Illustrator 19.2.0, SVG Export Plug-In . SVG Version: 6.00 Build 0)  -->
<svg version="1.1" id="Capa_1" xmlns="http://www.w3.org/2000/svg" xmlns:xlink="http://www.w3.org/1999/xlink" x="0px" y="0px"
	 viewBox="0 0 286 200" style="enable-background:new 0 0 286 200;" xml:space="preserve">
<style type="text/css">
	.st0{fill:#FFFFFF;}
</style>
<g>
	<path class="st0" d="M278.1,53.1h-10.8c-0.8,0-2,0.4-2.8,0.8l0,0l-12.4,8l0,0l0,0L233,18.8c-3.6-8.4-11.6-14-20.7-14.4l-51.9-3.2
		c-6-0.4-11.6-0.4-17.6-0.4c-6,0-11.6,0-17.6,0.4L73.4,4.5c-9.2,0.4-17.2,6-20.7,14.4L33.6,61.9l0,0l0,0l-12.4-8
		c-0.8-0.4-1.6-0.8-2.8-0.8H7.6c-2.8,0-4.8,2-4.8,4.8v2c0,1.6,0.8,2.8,1.6,3.6L16,73.1c0.8,0.4,1.2,0.8,2,1.2c0.4,0,0.4,0,0.8,0
		s1.2,0,1.6,0l0,0l8.4-2.4l0,0l0,0l-1.2,5.2c0,0.4-0.4,0.8-0.8,0.8L12,97c-0.8,0.8-1.6,2-2,3.2c-1.6,3.2-2.4,6.8-2,10.8l8.4,85.8
		c0,1.2,1.2,2.4,2.4,2.4h23.5c1.2,0,2.4-1.2,2.4-2.4v-15.6c0-2.8,2.4-5.2,5.2-4.8l0,0l0,0l59,2.8c5.6,0.4,11.2,0.4,16.8,0.8
		c11.2,0.4,22.7,0.4,33.9,0c5.6,0,11.2-0.4,16.8-0.8l59-2.8l0,0l0,0c2.8,0,5.2,2,5.2,4.8v15.6c0,1.2,1.2,2.4,2.4,2.4h23.5
		c1.2,0,2.4-0.8,2.4-2.4l8.4-85.8c0.4-3.6-0.4-7.6-2-10.8c-0.4-1.2-1.2-2-2-3.2l-14.8-19.1c-0.4-0.4-0.4-0.8-0.8-0.8l-1.2-5.2l0,0
		l0,0l8.4,2.4l0,0c0.4,0,1.2,0,1.6,0s0.4,0,0.8,0c0.8,0,1.6-0.4,2-1.2l11.6-9.6c1.2-0.8,1.6-2.4,1.6-3.6v-2
		C282.9,55.1,280.9,53.1,278.1,53.1z M62.7,134.9c-9.6,0-17.6-8-17.6-17.6s8-17.6,17.6-17.6c9.6,0,17.6,8,17.6,17.6
		S72.3,134.9,62.7,134.9z M143.3,67.9H51.9c-3.6,0-6-4-4.4-7.2l20.7-41.1c0.8-1.6,2.4-2.4,4-2.8l51.1-2.8c13.2-0.8,26.3-0.8,39.9,0
		l50.7,2.8c1.6,0,3.2,1.2,4,2.8L239,60.7c1.6,3.2-0.8,7.2-4.4,7.2H143.3z M223.8,134.9c-9.6,0-17.6-8-17.6-17.6s8-17.6,17.6-17.6
		c9.6,0,17.6,8,17.6,17.6S233.4,134.9,223.8,134.9z"/>
</g>
</svg>
