<?xml version="1.0" encoding="utf-8"?>
<!-- Generator: Adobe Illustrator 19.2.0, SVG Export Plug-In . SVG Version: 6.00 Build 0)  -->
<svg version="1.1" id="Capa_1" xmlns="http://www.w3.org/2000/svg" xmlns:xlink="http://www.w3.org/1999/xlink" x="0px" y="0px"
	 viewBox="0 0 300 300" style="enable-background:new 0 0 300 300;" xml:space="preserve">
<style type="text/css">
	.st0{opacity:0.5;}
	.st1{fill:#FFFFFF;}
	.st2{fill:url(#SVGID_1_);}
	.st3{fill:#333333;}
	.st4{opacity:0.4;}
	.st5{opacity:0.9;fill:#FFFFFF;}
	.st6{fill:url(#SVGID_2_);}
	.st7{fill:#666666;}
	.st8{fill:#D4145A;}
	.st9{fill-rule:evenodd;clip-rule:evenodd;fill:#D4145A;}
	.st10{fill:#1A1A1A;}
	.st11{fill:url(#SVGID_3_);}
	.st12{fill:#7FABC7;}
	.st13{fill:#436289;}
	.st14{fill:#547EA5;}
	.st15{fill:url(#SVGID_4_);}
	.st16{fill:#F2F2F2;}
	.st17{fill:#4D4D4D;}
	.st18{fill:#FFFFFF;stroke:#666666;stroke-miterlimit:10;}
	.st19{fill:url(#SVGID_5_);}
	.st20{opacity:0.3;fill:#FFFFFF;}
	.st21{opacity:0.5;fill:none;stroke:#FFFFFF;stroke-miterlimit:10;}
	.st22{opacity:0.9;}
	.st23{fill:none;stroke:#FFFFFF;stroke-width:0.25;stroke-miterlimit:10;}
	.st24{fill:#E7B46D;}
	.st25{fill:#BE8257;}
	.st26{fill:none;stroke:#E7B46D;stroke-miterlimit:10;}
	.st27{fill:url(#SVGID_6_);}
	.st28{fill:url(#SVGID_7_);}
	.st29{opacity:0.3;}
	.st30{opacity:0.6;}
	.st31{fill:url(#SVGID_8_);}
	.st32{fill:url(#SVGID_9_);}
	.st33{fill:url(#SVGID_10_);}
	.st34{fill:url(#SVGID_13_);}
	.st35{fill:url(#SVGID_14_);}
	.st36{fill:url(#SVGID_15_);}
	.st37{fill:url(#SVGID_16_);}
	.st38{fill:url(#SVGID_17_);}
	.st39{clip-path:url(#SVGID_19_);}
	.st40{opacity:0.5;fill:#FFFFFF;}
	.st41{fill:none;stroke:#333333;stroke-linecap:round;stroke-miterlimit:10;}
	.st42{fill:none;stroke:#4D4D4D;stroke-width:0.5;stroke-miterlimit:10;}
	.st43{fill:url(#SVGID_22_);}
</style>
<g>
	<path class="st1" d="M291.4,47.3H282v74.9h9.4c5.2,0,9.4-4.2,9.4-9.4V56.7C300.7,51.5,296.5,47.3,291.4,47.3z"/>
	<path class="st1" d="M272.6,9.9H29.1c-5.2,0-9.4,4.2-9.4,9.4v37.5c0,5.2,4.2,9.4,9.4,9.4H212c29.2,0.1,56-16.4,69-42.6
		c2.3-4.6,0.4-10.3-4.2-12.6C275.5,10.2,274.1,9.9,272.6,9.9z"/>
	<path class="st1" d="M29.1,84.8c-3.2,0-6.4-0.6-9.4-1.7v48.6c0,5.2,4.2,9.4,9.4,9.4h84.3v28.1c0,5.2,4.2,9.4,9.4,9.4h9.4v9.4
		c0,15.5-12.6,28.1-28.1,28.1H57.2v-46.8c0-5.2-4.2-9.4-9.4-9.4H10.3c-5.2,0-9.4,4.2-9.4,9.4v112.4c0,5.2,4.2,9.4,9.4,9.4h37.5
		c5.2,0,9.4-4.2,9.4-9.4v-46.8H104c25.9,0,46.8-21,46.8-46.8v-9.4h9.4c5.2,0,9.4-4.2,9.4-9.4V141h84.3c5.2,0,9.4-4.2,9.4-9.4V70
		c-15.3,9.7-33.1,14.9-51.3,14.8H29.1z"/>
</g>
</svg>
