<?xml version="1.0" encoding="utf-8"?>
<!-- Generator: Adobe Illustrator 19.2.0, SVG Export Plug-In . SVG Version: 6.00 Build 0)  -->
<svg version="1.1" id="Capa_1" xmlns="http://www.w3.org/2000/svg" xmlns:xlink="http://www.w3.org/1999/xlink" x="0px" y="0px"
	 viewBox="0 0 300 300" style="enable-background:new 0 0 300 300;" xml:space="preserve">
<style type="text/css">
	.st0{opacity:0.5;}
	.st1{fill:#FFFFFF;}
	.st2{fill:url(#SVGID_1_);}
	.st3{fill:#333333;}
	.st4{opacity:0.4;}
	.st5{opacity:0.9;fill:#FFFFFF;}
	.st6{fill:url(#SVGID_2_);}
	.st7{fill:#666666;}
	.st8{fill:#D4145A;}
	.st9{fill-rule:evenodd;clip-rule:evenodd;fill:#D4145A;}
	.st10{fill:#1A1A1A;}
	.st11{fill:url(#SVGID_3_);}
	.st12{fill:#7FABC7;}
	.st13{fill:#436289;}
	.st14{fill:#547EA5;}
	.st15{fill:url(#SVGID_4_);}
	.st16{fill:#F2F2F2;}
	.st17{fill:#4D4D4D;}
	.st18{fill:#FFFFFF;stroke:#666666;stroke-miterlimit:10;}
	.st19{fill:url(#SVGID_5_);}
	.st20{opacity:0.3;fill:#FFFFFF;}
	.st21{opacity:0.5;fill:none;stroke:#FFFFFF;stroke-miterlimit:10;}
	.st22{opacity:0.9;}
	.st23{fill:none;stroke:#FFFFFF;stroke-width:0.25;stroke-miterlimit:10;}
	.st24{fill:#E7B46D;}
	.st25{fill:#BE8257;}
	.st26{fill:none;stroke:#E7B46D;stroke-miterlimit:10;}
	.st27{fill:url(#SVGID_6_);}
	.st28{fill:url(#SVGID_7_);}
	.st29{opacity:0.3;}
	.st30{opacity:0.6;}
	.st31{fill:url(#SVGID_8_);}
	.st32{fill:url(#SVGID_9_);}
	.st33{fill:url(#SVGID_10_);}
	.st34{fill:url(#SVGID_13_);}
	.st35{fill:url(#SVGID_14_);}
	.st36{fill:url(#SVGID_15_);}
	.st37{fill:url(#SVGID_16_);}
	.st38{fill:url(#SVGID_17_);}
	.st39{clip-path:url(#SVGID_19_);}
	.st40{opacity:0.5;fill:#FFFFFF;}
	.st41{fill:none;stroke:#333333;stroke-linecap:round;stroke-miterlimit:10;}
	.st42{fill:none;stroke:#4D4D4D;stroke-width:0.5;stroke-miterlimit:10;}
	.st43{fill:url(#SVGID_22_);}
</style>
<g>
	<path class="st1" d="M235.3,142.2l-0.3-0.5l-0.5,0.3c-2.8,1.6-5.7,3.2-8.6,4.8l-0.6,0.3l0.4,0.5c8.7,13.2,13.8,28.3,14.7,43.9
		h-33.8c-0.5-11-2.4-22-5.8-32.6l-0.2-0.6l-0.6,0.2c-3.1,1.2-6.2,2.2-9.3,3.2l-0.6,0.2l0.2,0.6c2.9,9.4,4.7,19.2,5.2,29h-39.7v-23.4
		l-1.7,0.1c-2.9,0.1-5.8,0-8.7-0.1l-0.6,0v23.5h-39.7c0.5-9.6,2.2-19.3,5.2-28.8l0.2-0.6l-0.6-0.2c-3.2-0.9-6.3-1.9-9.3-3.1
		l-0.6-0.2l-0.2,0.6c-3.3,10.5-5.2,21.3-5.7,32.2H60.2c0.9-15.4,5.9-30.4,14.4-43.5l0.4-0.5l-0.6-0.3c-3-1.6-5.8-3.2-8.6-4.9
		l-0.5-0.3l-0.3,0.5c-10.5,16.4-16.1,35.5-16,55.1c0.3,55.5,45.7,100.7,101.3,100.7h0.5c55.8-0.3,101-46,100.7-101.8
		C251.5,177.3,245.8,158.5,235.3,142.2z M240.4,202.6c-1,16.8-6.6,32.8-16.3,46.5c-7.3-4.9-15.2-9.1-23.5-12.4c3.5-11,5.5-22.5,6-34
		H240.4z M217.1,257.7c-0.9,1-1.8,1.9-2.7,2.9c-11.6,11.7-25.9,19.9-41.7,24c10.2-11,18.3-23.7,24-37.5
		C203.9,249.9,210.7,253.5,217.1,257.7z M155.8,226.8v-24.3h39.7c-0.4,10.3-2.2,20.5-5.3,30.3C179.1,229.3,167.5,227.3,155.8,226.8z
		 M186.4,243.2c-6.9,16.4-17.2,30.7-30.6,42.4v-47.8C166.2,238.3,176.5,240.1,186.4,243.2z M105.1,202.6h39.7v24.3
		c-11.7,0.5-23.3,2.5-34.4,6C107.3,223.1,105.5,212.9,105.1,202.6z M103.8,247c5,12.1,11.9,23.3,20.4,33.3c1.2,1.4,2.4,2.8,3.7,4.1
		c-17.1-4.4-32.3-13.6-44.3-26.8C89.9,253.4,96.8,249.9,103.8,247z M144.8,237.9v47.8c-4.3-3.8-8.5-8-12.2-12.5
		c-7.6-9.1-13.8-19.1-18.4-30C124.1,240.1,134.4,238.3,144.8,237.9z M100,236.6c-8.1,3.3-16,7.5-23.4,12.4
		c-9.7-13.7-15.3-29.7-16.3-46.4H94C94.5,214.1,96.5,225.6,100,236.6z"/>
	<path class="st1" d="M279.9,77.6C279.9,77.5,279.9,77.5,279.9,77.6l-0.2-1.4c-0.6-3.5-2.2-6.8-4.6-9.4
		c-7.1-8.4-15.8-16.6-27.3-25.8c-24.2-19.2-48.5-31.6-72.3-36.6c-15.5-3.3-31.6-3.5-47.6-0.7c-13.2,2.4-26.6,7.1-41,14.4
		C68.2,27.7,50.1,41,33.2,57.8c-2.9,2.8-5.9,5.9-8.6,9.2c-6.1,7.3-6.1,16.7,0,24c7,8.4,15.8,16.6,27.5,26
		c24.1,19.2,48.5,31.6,72.3,36.6c8.3,1.8,16.9,2.7,25.4,2.7l0,0c7.3,0,14.8-0.7,22.3-2c13.2-2.4,26.6-7.1,41-14.4
		c18.7-9.6,36.8-22.9,53.6-39.6c2.8-2.7,5.7-5.7,8.4-9c2.4-2.5,4-5.8,4.6-9.2l0.2-0.6l0-1.7c0-0.2,0-0.4,0-0.7L279.9,77.6z
		 M162.7,83.5c0,7-5.7,12.7-12.7,12.7c-7,0-12.7-5.7-12.7-12.7c0-1.6,0.3-3.1,0.9-4.5h23.7C162.4,80.5,162.7,81.9,162.7,83.5z
		 M262.5,79.2l-0.5,0.5c-2.4,2.8-5.1,5.5-7.6,8.1c-15.6,15.5-32.2,27.8-49.3,36.5c-12.8,6.6-24.6,10.7-36.1,12.8
		c-6.4,1.2-12.9,1.7-19.2,1.7l0,0c-7.3,0-14.6-0.8-21.8-2.3c-21.2-4.5-43.1-15.7-65.1-33.2c-10.8-8.6-18.8-16.1-25.1-23.6
		c-0.3-0.4-0.4-0.6-0.5-0.7H109c-0.2,1.6-0.3,3.1-0.3,4.8c0,22.8,18.5,41.3,41.3,41.3c22.8,0,41.2-18.5,41.2-41.3
		c0-1.6-0.1-3.2-0.3-4.8h71.6L262.5,79.2L262.5,79.2z"/>
</g>
</svg>
